<!-- Generator: Adobe Illustrator 21.0.2, SVG Export Plug-In  -->
<svg version="1.1"
	 xmlns="http://www.w3.org/2000/svg" xmlns:xlink="http://www.w3.org/1999/xlink" xmlns:a="http://ns.adobe.com/AdobeSVGViewerExtensions/3.0/"
	 x="0px" y="0px" width="225.165px" height="137.829px" viewBox="0 0 225.165 137.829"
	 style="enable-background:new 0 0 225.165 137.829;" xml:space="preserve">
<style type="text/css">
	.st0{fill:#D1D3D4;}
</style>
<defs>
</defs>
<path class="st0" d="M47.498,26.867L18.205,75.352c0,0-17.172-18.182-18.182-56.566s31.313-6.061,31.313-6.061
	S42.447,26.867,47.498,26.867z"/>
<path class="st0" d="M177.667,26.867l29.293,48.485c0,0,17.172-18.182,18.182-56.566s-31.313-6.061-31.313-6.061
	S182.717,26.867,177.667,26.867z"/>
<path class="st0" d="M49.498,26.867c0,0,11.141-5.141,17.808,0.192c6.667,5.333,18.667,12,18.667,12s-24.667,75-25.667,79.667
	s-40.333-28.667-43-32.667s2.899-10.707,2.899-10.707L49.498,26.867z"/>
<path class="st0" d="M175.391,26.867c0,0-11.141-5.141-17.808,0.192c-6.667,5.333-18.667,12-18.667,12s24.667,75,25.667,79.667
	s40.333-28.667,43-32.667c2.667-4-2.899-10.707-2.899-10.707L175.391,26.867z"/>
<path class="st0" d="M68.639,129.725c47.768,18.692,87.333-0.667,90.667-1.667c3.333-1,3.277-9.333,3.277-9.333l-25.667-79.667
	H87.973l-25.667,79.667C62.306,118.725,60.973,126.725,68.639,129.725z"/>
</svg>